<svg width="50" height="18" viewBox="0 0 50 18" fill="none" xmlns="http://www.w3.org/2000/svg">
<path d="M9.11719 11.6152C9.11719 12.5007 8.78516 13.2331 8.12109 13.8125C7.45703 14.3854 6.5293 14.7467 5.33789 14.8965V17.1621H4.07812V14.9844C3.34896 14.9844 2.64258 14.929 1.95898 14.8184C1.27539 14.7012 0.715495 14.5417 0.279297 14.3398V12.8164C0.819661 13.0573 1.44141 13.2559 2.14453 13.4121C2.85417 13.5618 3.4987 13.6367 4.07812 13.6367V9.33984C2.74349 8.91667 1.80599 8.42513 1.26562 7.86523C0.731771 7.30534 0.464844 6.58268 0.464844 5.69727C0.464844 4.8444 0.79362 4.14453 1.45117 3.59766C2.11523 3.05078 2.99089 2.71875 4.07812 2.60156V0.824219H5.33789V2.58203C6.53581 2.61458 7.69141 2.85547 8.80469 3.30469L8.29688 4.58398C7.32682 4.19987 6.34049 3.97201 5.33789 3.90039V8.13867C6.36003 8.46419 7.125 8.7832 7.63281 9.0957C8.14062 9.40169 8.51497 9.75651 8.75586 10.1602C8.99674 10.5573 9.11719 11.0423 9.11719 11.6152ZM7.45703 11.7422C7.45703 11.2734 7.31055 10.8958 7.01758 10.6094C6.73112 10.3164 6.17122 10.0267 5.33789 9.74023V13.5391C6.75065 13.3438 7.45703 12.7448 7.45703 11.7422ZM2.11523 5.67773C2.11523 6.17253 2.26172 6.56966 2.55469 6.86914C2.84766 7.16862 3.35547 7.45182 4.07812 7.71875V3.93945C3.43359 4.04362 2.94531 4.2487 2.61328 4.55469C2.28125 4.85417 2.11523 5.22852 2.11523 5.67773ZM20.8066 16H11.4219V14.6035L15.1816 10.8242C16.3275 9.66536 17.0827 8.83854 17.4473 8.34375C17.8118 7.84896 18.0853 7.36719 18.2676 6.89844C18.4499 6.42969 18.541 5.92513 18.541 5.38477C18.541 4.62305 18.3099 4.02083 17.8477 3.57812C17.3854 3.12891 16.7441 2.9043 15.9238 2.9043C15.3314 2.9043 14.7682 3.00195 14.2344 3.19727C13.707 3.39258 13.1178 3.7474 12.4668 4.26172L11.6074 3.1582C12.9225 2.06445 14.3548 1.51758 15.9043 1.51758C17.2454 1.51758 18.2969 1.86263 19.0586 2.55273C19.8203 3.23633 20.2012 4.15755 20.2012 5.31641C20.2012 6.22135 19.9473 7.11654 19.4395 8.00195C18.9316 8.88737 17.9811 10.0072 16.5879 11.3613L13.4629 14.418V14.4961H20.8066V16ZM27.3301 7.2793C28.834 7.2793 30.0156 7.65365 30.875 8.40234C31.7409 9.14453 32.1738 10.1634 32.1738 11.459C32.1738 12.9368 31.7018 14.0957 30.7578 14.9355C29.8203 15.7754 28.5247 16.1953 26.8711 16.1953C25.263 16.1953 24.0358 15.9382 23.1895 15.4238V13.8613C23.6452 14.1543 24.2116 14.3854 24.8887 14.5547C25.5658 14.7174 26.2331 14.7988 26.8906 14.7988C28.0365 14.7988 28.9251 14.5286 29.5566 13.9883C30.1947 13.4479 30.5137 12.6667 30.5137 11.6445C30.5137 9.65234 29.293 8.65625 26.8516 8.65625C26.2331 8.65625 25.4062 8.75065 24.3711 8.93945L23.5312 8.40234L24.0684 1.72266H31.168V3.2168H25.4551L25.0938 7.50391C25.8424 7.35417 26.5879 7.2793 27.3301 7.2793ZM34.8203 14.9648C34.8203 14.5286 34.918 14.1999 35.1133 13.9785C35.3151 13.7507 35.6016 13.6367 35.9727 13.6367C36.3503 13.6367 36.6432 13.7507 36.8516 13.9785C37.0664 14.1999 37.1738 14.5286 37.1738 14.9648C37.1738 15.388 37.0664 15.7135 36.8516 15.9414C36.6367 16.1693 36.3438 16.2832 35.9727 16.2832C35.6406 16.2832 35.3639 16.1823 35.1426 15.9805C34.9277 15.7721 34.8203 15.4336 34.8203 14.9648ZM41.4512 16L47.3691 3.2168H39.5859V1.72266H49.0879V3.02148L43.248 16H41.4512Z" fill="#5A7184"/>
</svg>
